<mxfile host="app.diagrams.net" modified="2023-09-11T10:51:04.364Z" agent="Mozilla/5.0 (Windows NT 10.0; Win64; x64) AppleWebKit/537.36 (KHTML, like Gecko) Chrome/116.0.0.0 Safari/537.36" etag="M2t9A7LIhgNQ_DKHcO5a" version="21.7.4" type="device">
  <diagram name="1 oldal" id="8U09e5RLvrTEguTNTfCP">
    <mxGraphModel dx="1434" dy="790" grid="1" gridSize="10" guides="1" tooltips="1" connect="1" arrows="1" fold="1" page="1" pageScale="1" pageWidth="827" pageHeight="1169" math="0" shadow="0">
      <root>
        <mxCell id="0" />
        <mxCell id="1" parent="0" />
        <mxCell id="TiM9jYJZG8f-tJ-9e_Q9-1" value="születési dátum" style="ellipse;whiteSpace=wrap;html=1;" parent="1" vertex="1">
          <mxGeometry x="30" y="70" width="170" height="60" as="geometry" />
        </mxCell>
        <mxCell id="TiM9jYJZG8f-tJ-9e_Q9-2" value="név" style="ellipse;whiteSpace=wrap;html=1;" parent="1" vertex="1">
          <mxGeometry x="270" y="10" width="90" height="70" as="geometry" />
        </mxCell>
        <mxCell id="TiM9jYJZG8f-tJ-9e_Q9-3" value="&lt;u&gt;személyi szám&lt;/u&gt;" style="ellipse;whiteSpace=wrap;html=1;" parent="1" vertex="1">
          <mxGeometry x="270" y="120" width="190" height="60" as="geometry" />
        </mxCell>
        <mxCell id="TiM9jYJZG8f-tJ-9e_Q9-5" value="Személy" style="rounded=0;whiteSpace=wrap;html=1;" parent="1" vertex="1">
          <mxGeometry x="170" y="220" width="120" height="60" as="geometry" />
        </mxCell>
        <mxCell id="TiM9jYJZG8f-tJ-9e_Q9-6" value="Könyv" style="rounded=0;whiteSpace=wrap;html=1;" parent="1" vertex="1">
          <mxGeometry x="180" y="450" width="100" height="50" as="geometry" />
        </mxCell>
        <mxCell id="TiM9jYJZG8f-tJ-9e_Q9-7" value="Cím" style="ellipse;whiteSpace=wrap;html=1;" parent="1" vertex="1">
          <mxGeometry x="360" y="450" width="114" height="70" as="geometry" />
        </mxCell>
        <mxCell id="TiM9jYJZG8f-tJ-9e_Q9-8" value="Kiadási év" style="ellipse;whiteSpace=wrap;html=1;" parent="1" vertex="1">
          <mxGeometry x="370" y="630" width="180" height="60" as="geometry" />
        </mxCell>
        <mxCell id="TiM9jYJZG8f-tJ-9e_Q9-9" value="&lt;u&gt;ISBN&lt;/u&gt;" style="ellipse;whiteSpace=wrap;html=1;" parent="1" vertex="1">
          <mxGeometry x="130" y="660" width="130" height="70" as="geometry" />
        </mxCell>
        <mxCell id="TiM9jYJZG8f-tJ-9e_Q9-10" value="Szerző" style="ellipse;whiteSpace=wrap;html=1;fontStyle=0" parent="1" vertex="1">
          <mxGeometry y="500" width="120" height="50" as="geometry" />
        </mxCell>
        <mxCell id="TiM9jYJZG8f-tJ-9e_Q9-11" value="" style="endArrow=none;html=1;rounded=0;" parent="1" edge="1">
          <mxGeometry width="50" height="50" relative="1" as="geometry">
            <mxPoint x="120" y="520" as="sourcePoint" />
            <mxPoint x="180" y="490" as="targetPoint" />
          </mxGeometry>
        </mxCell>
        <mxCell id="TiM9jYJZG8f-tJ-9e_Q9-12" value="kölcsönzés" style="rhombus;whiteSpace=wrap;html=1;rotation=0;" parent="1" vertex="1">
          <mxGeometry x="133.67000000000002" y="310" width="192.67" height="79.83" as="geometry" />
        </mxCell>
        <mxCell id="TiM9jYJZG8f-tJ-9e_Q9-17" value="" style="endArrow=none;html=1;rounded=0;exitX=0.5;exitY=0;exitDx=0;exitDy=0;" parent="1" source="TiM9jYJZG8f-tJ-9e_Q9-9" edge="1">
          <mxGeometry width="50" height="50" relative="1" as="geometry">
            <mxPoint x="180" y="550" as="sourcePoint" />
            <mxPoint x="230" y="500" as="targetPoint" />
          </mxGeometry>
        </mxCell>
        <mxCell id="TiM9jYJZG8f-tJ-9e_Q9-18" value="" style="endArrow=none;html=1;rounded=0;entryX=0;entryY=0.5;entryDx=0;entryDy=0;" parent="1" target="TiM9jYJZG8f-tJ-9e_Q9-7" edge="1">
          <mxGeometry width="50" height="50" relative="1" as="geometry">
            <mxPoint x="280" y="480" as="sourcePoint" />
            <mxPoint x="330" y="430" as="targetPoint" />
          </mxGeometry>
        </mxCell>
        <mxCell id="TiM9jYJZG8f-tJ-9e_Q9-19" value="" style="endArrow=none;html=1;rounded=0;exitX=0.206;exitY=0.033;exitDx=0;exitDy=0;exitPerimeter=0;" parent="1" source="TiM9jYJZG8f-tJ-9e_Q9-8" edge="1">
          <mxGeometry width="50" height="50" relative="1" as="geometry">
            <mxPoint x="230" y="550" as="sourcePoint" />
            <mxPoint x="280" y="500" as="targetPoint" />
          </mxGeometry>
        </mxCell>
        <mxCell id="Cney1YFzKj5i_WRpoIrR-1" value="" style="endArrow=none;html=1;rounded=0;exitX=0.5;exitY=0;exitDx=0;exitDy=0;" edge="1" parent="1" source="TiM9jYJZG8f-tJ-9e_Q9-6">
          <mxGeometry width="50" height="50" relative="1" as="geometry">
            <mxPoint x="180" y="439.83" as="sourcePoint" />
            <mxPoint x="230" y="389.83" as="targetPoint" />
          </mxGeometry>
        </mxCell>
        <mxCell id="Cney1YFzKj5i_WRpoIrR-2" value="" style="endArrow=none;html=1;rounded=0;entryX=0.5;entryY=1;entryDx=0;entryDy=0;exitX=0.5;exitY=0;exitDx=0;exitDy=0;" edge="1" parent="1" source="TiM9jYJZG8f-tJ-9e_Q9-12" target="TiM9jYJZG8f-tJ-9e_Q9-5">
          <mxGeometry width="50" height="50" relative="1" as="geometry">
            <mxPoint x="220" y="330" as="sourcePoint" />
            <mxPoint x="250" y="300" as="targetPoint" />
          </mxGeometry>
        </mxCell>
        <mxCell id="Cney1YFzKj5i_WRpoIrR-3" value="" style="endArrow=none;html=1;rounded=0;entryX=0.211;entryY=0.971;entryDx=0;entryDy=0;entryPerimeter=0;exitX=0.5;exitY=0;exitDx=0;exitDy=0;" edge="1" parent="1" source="TiM9jYJZG8f-tJ-9e_Q9-5" target="TiM9jYJZG8f-tJ-9e_Q9-2">
          <mxGeometry width="50" height="50" relative="1" as="geometry">
            <mxPoint x="200" y="175" as="sourcePoint" />
            <mxPoint x="250" y="125" as="targetPoint" />
          </mxGeometry>
        </mxCell>
        <mxCell id="Cney1YFzKj5i_WRpoIrR-4" value="" style="endArrow=none;html=1;rounded=0;" edge="1" parent="1">
          <mxGeometry width="50" height="50" relative="1" as="geometry">
            <mxPoint x="250" y="220" as="sourcePoint" />
            <mxPoint x="300" y="170" as="targetPoint" />
          </mxGeometry>
        </mxCell>
        <mxCell id="Cney1YFzKj5i_WRpoIrR-5" value="" style="endArrow=none;html=1;rounded=0;exitX=0.333;exitY=-0.067;exitDx=0;exitDy=0;exitPerimeter=0;" edge="1" parent="1" source="TiM9jYJZG8f-tJ-9e_Q9-5">
          <mxGeometry width="50" height="50" relative="1" as="geometry">
            <mxPoint x="110" y="175" as="sourcePoint" />
            <mxPoint x="160" y="125" as="targetPoint" />
          </mxGeometry>
        </mxCell>
      </root>
    </mxGraphModel>
  </diagram>
</mxfile>
